<svg width="256" height="256" viewBox="0 0 256 256" xmlns="http://www.w3.org/2000/svg">
  <rect x="12" y="12" width="192" height="192" rx="28" fill="#4A5672"/>
  <circle cx="96" cy="76" r="18" fill="#FFCC00"/>
  <path d="M12 157L62 108L98 144L148 90L204 146V204H12V157Z" fill="#11B39B"/>
  <circle cx="200" cy="184" r="50" fill="#F3F4F6"/>
  <path d="M200 211C194.477 211 190 206.523 190 201V186.357L186.071 190.286C182.166 194.191 175.834 194.191 171.929 190.286C168.024 186.381 168.024 180.049 171.929 176.143L192.929 155.143C196.834 151.238 203.166 151.238 207.071 155.143L228.071 176.143C231.976 180.049 231.976 186.381 228.071 190.286C224.166 194.191 217.834 194.191 213.929 190.286L210 186.357V201C210 206.523 205.523 211 200 211Z" fill="#11B39B"/>
</svg>
